<svg width="32" height="32" xmlns="http://www.w3.org/2000/svg">

 <title/>
 <g>
  <title>background</title>
  <rect fill="none" id="canvas_background" height="402" width="582" y="-1" x="-1"/>
 </g>
 <g>
  <title>Layer 1</title>
  <path fill="#ffffff" id="svg_1" d="m16,7a8.36,8.36 0 0 0 -8,8a8.4,8.4 0 0 0 2.29,5.7a4.56,4.56 0 0 1 1.71,3.3a1,1 0 0 0 1,1l6,0a1,1 0 0 0 1,-1a4.46,4.46 0 0 1 1.69,-3.28a7.87,7.87 0 0 0 2.31,-5.72a8.17,8.17 0 0 0 -2.44,-5.83a7.67,7.67 0 0 0 -5.56,-2.17zm4.34,12.28a6.87,6.87 0 0 0 -2.25,3.72l-4.18,0a7,7 0 0 0 -2.2,-3.71a6.41,6.41 0 0 1 -1.71,-4.29a6.29,6.29 0 0 1 6,-6a5.63,5.63 0 0 1 4.13,1.6a6.16,6.16 0 0 1 1.87,4.4a5.93,5.93 0 0 1 -1.69,4.28l0.03,0z" class="cls-1"/>
  <path fill="#ffffff" id="svg_2" d="m19,26l-6,0a1,1 0 0 0 0,2l6,0a1,1 0 0 0 0,-2z" class="cls-1"/>
  <path fill="#ffffff" id="svg_3" d="m18,29l-4,0a1,1 0 0 0 0,2l4,0a1,1 0 0 0 0,-2z" class="cls-1"/>
  <path fill="#ffffff" id="svg_4" d="m16,5a1,1 0 0 0 1,-1l0,-2a1,1 0 0 0 -2,0l0,2a1,1 0 0 0 1,1z" class="cls-1"/>
  <path fill="#ffffff" id="svg_5" d="m5,14l-2,0a1,1 0 0 0 0,2l2,0a1,1 0 0 0 0,-2z" class="cls-1"/>
  <path fill="#ffffff" id="svg_6" d="m29,14l-2,0a1,1 0 0 0 0,2l2,0a1,1 0 0 0 0,-2z" class="cls-1"/>
  <path fill="#ffffff" id="svg_7" d="m25.9,5.1a1,1 0 0 0 -1.41,0l-1.42,1.41a1,1 0 0 0 0,1.42a1,1 0 0 0 0.71,0.29a1,1 0 0 0 0.71,-0.29l1.41,-1.42a1,1 0 0 0 0,-1.41z" class="cls-1"/>
  <path fill="#ffffff" id="svg_8" d="m8.93,7.93a1,1 0 0 0 0,-1.42l-1.42,-1.41a1,1 0 0 0 -1.41,1.41l1.41,1.42a1,1 0 0 0 0.71,0.29a1,1 0 0 0 0.71,-0.29z" class="cls-1"/>
 </g>
</svg>